/* XPM */
static char *peticon-32x28[] = {
/* columns rows colors chars-per-pixel */
"32 28 92 1",
"  c black",
". c #00C500C50263",
"X c #023500240092",
"o c #0197019704EE",
"O c #01F501F50611",
"+ c #0233023306CF",
"@ c #02BB02BB087C",
"# c #02EA02EA0909",
"$ c #044104410D30",
"% c #04F704F70F65",
"& c #08310087021D",
"* c #0A4500AA02A6",
"= c #0663066313CD",
"- c #06B006B014BB",
"; c #07A307A317A6",
": c #07F307F318A4",
"> c #094D094D1CD5",
", c #099209921DAC",
"< c #156101610584",
"1 c #17A201860619",
"2 c #19E201AB06AE",
"3 c #0BDA0BDA24BD",
"4 c #0FB30FB330AB",
"5 c #3016031A0C69",
"6 c #391A03AF0EBC",
"7 c #176317634880",
"8 c #1BFE1BFE56C7",
"9 c #1C271C275746",
"0 c #1C381C38577A",
"q c #1F3A1F3A60CD",
"w c #2079207964AA",
"e c #20BD20BD657D",
"r c #24AB24AB71AE",
"t c #252025207316",
"y c #2558255873C7",
"u c #280728077C17",
"i c #294629467FF5",
"p c #4575047B11EC",
"a c #467F048B122D",
"s c #4F49051D1476",
"d c #57B205A816A2",
"f c #598005C51719",
"g c #29F629F681AB",
"h c #30153015950F",
"j c #308D308D9684",
"k c #32FC32FC9E0E",
"l c #33E133E1A0D4",
"z c #350C350CA472",
"x c #35503550A545",
"c c #359B359BA630",
"v c #36193619A7B7",
"b c #377C377CAC02",
"n c #37B537B5ACB4",
"m c #382F382FAE2B",
"M c #40294029C5E9",
"N c #40294029C6E7",
"B c #45594559D6FE",
"V c #49A849A8E458",
"C c #4A0F4A0FE596",
"Z c #4AC54AC5E7CD",
"A c #4B5D4B5DE808",
"S c #4CF44CF4EE8F",
"D c #4EEA4EEAF4A3",
"F c #4F2F4F2FF57B",
"G c #4FE74FE7F6B7",
"H c #50145014F718",
"J c #503E503EF8C0",
"K c #50715071F832",
"L c #506B506BF94C",
"P c #51445144FBED",
"I c #514E514EFC0C",
"U c #521F521FFB3C",
"Y c #517E517EFC96",
"T c #51AD51ADFD36",
"R c #52035203FE3E",
"E c #52415241FEFF",
"W c #52B552B5FF75",
"Q c #53015301FFFF",
"! c #53725372FFFF",
"~ c #C8BA0CF233CC",
"^ c #CEF70D5A3569",
"/ c #E0800E7C39EF",
"( c #E3A80EC13B07",
") c #E4570EBB3AED",
"_ c #E57B0ECE3B38",
"` c #E6750EDE3B78",
"' c #E7580EEC3BB3",
"] c #FD2710544152",
"[ c #FE5A106941A3",
"{ c #FF5110814207",
"} c #FFFF10894226",
"| c None",
/* pixels */
"|||||||||  @8q0qq0@|||||||||||||",
"||||||  -tcnDQQQQC:|||||||||||||",
"||||| ,eBGQQJQLJQC:|||||||||||||",
"||||+rNQPQLPQJJQQC-|||||||||||||",
"|||+gGQJPPPPLQJJJC:|||||||||||||",
"|| tJQLQPPPPQJQQQV-|||||||||||||",
"| ,MQJJQPPPQQLQQQV-|||||||||||||",
"| qQQLQJLQGBq8008k:|||||||||||||",
"|-BQPPPPPLu=     %           |||",
" 3ZJPPPPGg+||||||||%hcccccl4 |||",
" hQQPPLQm+|||||||||:C!Q!QJg@||||",
"+nQJPPPS7 |||||||||:A!Q!Ji+|||||",
"8GPPPPQV-||||||||||%hcccr+||||||",
"0QPLPPPV:||||||||||      |||||||",
"qQJQPPQV:||||||||||&sddf6 ||||||",
"0LQLPPPV-||||||||||2_{{{(a |||||",
"+nQPPPQS7 |||||||||1_{]{{(a ||||",
" hQLPLLQm+|||||||||1^_(((_~5 |||",
" 3CQPPPPGi+|||||||| 1111112& |||",
"|-BQPPPPQGi-     % |||||||||||||",
"| eQLPPPJQGBq0088k:             ",
"| ,MQLPPQLQJPQQQQC:             ",
"|| rLQPPPPLLPPLLQV-       |||  |",
"|||+iLQPPPLQPLQQQV-         |  |",
"||||+rNQQJQJJQLLQV;         |  |",
"||||| ,eBKQQQJQLJC;  ||   |||  |",
"||||||  =rcbDQJQQC:  ||     |  |",
"|||||||||  @8qqqq8@  ||     |  |"
};
