/* XPM */
static char *vic20icon-32x28[] = {
/* columns rows colors chars-per-pixel */
"32 28 88 1",
"  c black",
". c #00E300E302C1",
"X c #02E4003000BF",
"o c #01F501F50611",
"O c #026702670774",
"+ c #03EA03EA0C23",
"@ c #040904090C82",
"# c #044704470D41",
"$ c #08310087021D",
"% c #0B1C00B702DE",
"& c #06B006B014BB",
"* c #094A094A1CCA",
"= c #17A301860619",
"- c #18A40197065B",
"; c #1A8101B506D7",
": c #1D5F01E50794",
"> c #1E6001F507D7",
", c #0ACF0ACF2183",
"< c #0BDD0BDD24C6",
"1 c #115E115E35D8",
"2 c #126B126B391A",
"3 c #145314533F00",
"4 c #167C167C45B7",
"5 c #16AD16AD464A",
"6 c #174C174C4838",
"7 c #179B179B48F9",
"8 c #181D181D4AC8",
"9 c #198119814F11",
"0 c #1BCC1BCC562C",
"q c #1BFE1BFE56C7",
"w c #1C381C38577A",
"e c #1CDF1CDF58E3",
"r c #1F221F226083",
"t c #1F6C1F6C6168",
"y c #1FDA1FDA62BF",
"u c #209E209E651C",
"i c #20BE20BE657F",
"p c #222D222D69F3",
"a c #4F49051D1476",
"s c #57F405AC16B3",
"d c #2BD42BD487DF",
"f c #2C912C918A2B",
"g c #308D308D9684",
"h c #30B330B396FB",
"j c #34583458A245",
"k c #350B350BA46F",
"l c #354F354FA544",
"z c #35873587A5F1",
"x c #36043604A773",
"c c #382F382FAE2B",
"v c #39A939A9B2CB",
"b c #3A253A25B442",
"n c #3B083B08B6D5",
"m c #3ECC3ECCC2AB",
"M c #3F1C3F1CC3A3",
"N c #45674567D728",
"B c #48324832DFCE",
"V c #485B485BE050",
"C c #48B348B3E15F",
"Z c #495A495AE2C8",
"A c #4A494A49E3B0",
"S c #4AC54AC5E7CD",
"D c #4AF74AF7E83D",
"F c #4E014E01F0D5",
"G c #4E054E05F13E",
"H c #4F4E4F4EF5DB",
"J c #51435143FBEC",
"K c #514D514DFC0A",
"L c #51835183FCB2",
"P c #51CB51CBFD4D",
"I c #52135213FE6F",
"U c #52445244FF08",
"Y c #527F527FFE96",
"T c #52885288FFDB",
"R c #53275327FFFF",
"E c #53AF53AFFFFF",
"W c #9EE10A3F2900",
"Q c #B6FF0BCE2F39",
"! c #B80B0BE52F96",
"~ c #E45E0EBB3AEF",
"^ c #E6750EDE3B79",
"/ c #E7630EED3BB6",
"( c #FD3810564158",
") c #FE431067419D",
"_ c #FFA9107E41FA",
"` c #FFFF108E4239",
"' c #FFCF109C4273",
"] c None",
/* pixels */
"]]]]]]]]]   <rrrru3 ]]]]]]]]]]]]",
"]]]]]]] o<hjmUJJUEk ]]]]]]]]]]]]",
"]]]]]  1fDUUUJJJUEk ]]]]]]]]]]]]",
"]]]] *hBUJJJJJJJJUk ]]]]]]]]]]]]",
"]]] *bUUJJJJJJJJJUk ]]]]]]]]]]]]",
"]]]@bUJUJJJJJJJJJEk ]]]]]]]]]]]]",
"]] 8FJJJJJJJUUUUUEk ]]]]]]]]]]]]",
"]]ocUJJJJJJFvwwwwif ]]]]]]]]]]]]",
"] 9HJJJJJUB6@     @           ]]",
"] iUJJJJUB4 ]]]]]]] 2kkkkkkf@ ]]",
"]&NUJJJUUi ]]]]]]]] eEEUEEZ8 ]]]",
" <SJJJJUM* ]]]]]]]] eEEEEZ4 ]]]]",
" hUJJJJUk ]]]]]]]]] 2kkkk6 ]]]]]",
" kUJJJJEk ]]]]]]]]]       ]]]]]]",
" kUJJJJUk ]]]]]]]]] :ssss: ]]]]]",
" hUUJJJEk ]]]]]]]]] s''''!: ]]]]",
" <SJJJJUm* ]]]]]]]] s''(('!: ]]]",
"]&NUJJJJUi ]]]]]]]] a^~~~~/W$ ]]",
"] iUJJJJUZ4 ]]]]]]] $======-X ]]",
"] 9HJJJJJUZ6+    o@             ",
"]]ocUUJJJJUFv0wwwid             ",
"]] 6FUJJJJJJUUUUEEk          ]  ",
"]]]@bUJJJJJJJJJJUEj ]           ",
"]]] *bUJJJJJJJJJJEk ]          ]",
"]]]] *hZUUUJJJJJUEk ]]          ",
"]]]]]  1fDJEUJJJJEk ]]          ",
"]]]]]]] o<hkmUJUJEk ]]          ",
"]]]]]]]]]   ,teueu3 ]]          "
};
