<?xml version="1.0" encoding="UTF-8" standalone="no"?>
<!DOCTYPE svg PUBLIC "-//W3C//DTD SVG 20010904//EN"
              "http://www.w3.org/TR/2001/REC-SVG-20010904/DTD/svg10.dtd">

<svg xmlns="http://www.w3.org/2000/svg"
     width="6.27778in" height="6.25556in"
     viewBox="0 0 565 563">
  <path id="Auswahl"
        fill="#ffffff" stroke="#ffffff" stroke-width="1"
        d="M 305.00,14.00
           C 305.00,14.00 344.00,53.00 344.00,53.00
             344.00,53.00 382.00,91.00 382.00,91.00
             388.62,97.62 395.68,103.71 394.81,114.00
             394.00,123.62 386.37,129.63 380.00,136.00
             380.00,136.00 344.00,172.00 344.00,172.00
             344.00,172.00 320.04,196.00 320.04,196.00
             320.04,196.00 310.99,206.00 310.99,206.00
             310.99,206.00 239.00,278.00 239.00,278.00
             239.00,278.00 209.00,308.00 209.00,308.00
             209.00,308.00 193.00,323.83 193.00,323.83
             191.60,325.07 189.65,326.69 188.00,327.57
             177.41,333.20 176.01,319.96 176.00,313.00
             176.00,313.00 176.00,112.00 176.00,112.00
             176.03,94.49 184.38,89.62 196.00,78.00
             196.00,78.00 230.00,44.00 230.00,44.00
             230.00,44.00 258.00,16.00 258.00,16.00
             265.28,8.72 269.60,2.93 280.00,0.47
             291.60,-0.89 297.52,6.52 305.00,14.00 Z
           M 475.00,184.00
           C 475.00,184.00 511.00,220.00 511.00,220.00
             511.00,220.00 551.00,260.00 551.00,260.00
             557.56,266.56 565.76,273.75 564.89,284.00
             564.02,294.35 550.10,305.90 543.00,313.00
             543.00,313.00 485.00,371.00 485.00,371.00
             477.64,378.36 466.13,392.22 456.00,394.31
             445.56,396.46 437.71,388.70 431.00,382.00
             431.00,382.00 390.00,341.00 390.00,341.00
             390.00,341.00 353.00,304.00 353.00,304.00
             346.89,297.88 339.36,290.52 340.34,281.00
             341.51,269.57 355.14,258.86 363.00,251.00
             363.00,251.00 419.00,195.00 419.00,195.00
             427.44,186.56 437.43,173.70 449.00,170.52
             461.14,168.70 467.18,176.18 475.00,184.00 Z
           M 106.00,189.00
           C 106.00,189.00 106.00,223.00 106.00,223.00
             106.00,223.00 106.00,271.00 106.00,271.00
             106.00,271.00 107.00,290.00 107.00,290.00
             107.00,290.00 106.00,305.00 106.00,305.00
             106.00,305.00 106.00,372.00 106.00,372.00
             105.99,376.92 105.89,387.99 98.00,386.02
             92.35,384.61 78.71,369.71 74.00,365.00
             74.00,365.00 18.00,309.00 18.00,309.00
             10.18,301.18 -0.85,293.22 0.09,281.00
             0.83,271.48 9.68,264.32 16.00,258.00
             16.00,258.00 58.00,216.00 58.00,216.00
             58.00,216.00 77.83,196.00 77.83,196.00
             83.54,189.69 89.03,182.34 97.00,178.82
             104.48,178.07 105.91,182.54 106.00,189.00 Z
           M 286.00,339.29
           C 297.71,339.65 309.79,354.84 317.17,363.00
             317.17,363.00 337.00,383.00 337.00,383.00
             337.00,383.00 381.00,427.00 381.00,427.00
             388.83,434.83 396.48,440.00 395.96,452.00
             395.45,463.62 382.83,473.17 375.00,481.00
             375.00,481.00 313.00,543.00 313.00,543.00
             304.60,551.40 296.05,563.54 283.00,562.96
             274.03,562.56 267.96,555.95 262.00,550.00
             262.00,550.00 229.00,517.00 229.00,517.00
             229.00,517.00 189.00,477.00 189.00,477.00
             182.62,470.62 173.92,463.35 172.33,454.00
             170.05,440.66 183.64,430.36 192.00,422.00
             192.00,422.00 250.00,364.00 250.00,364.00
             257.62,356.38 268.97,342.65 279.00,339.29
             281.62,339.10 283.31,338.90 286.00,339.29 Z" />
</svg>
